<mxfile host="app.diagrams.net" modified="2022-07-16T17:25:58.588Z" agent="5.0 (X11; Linux x86_64) AppleWebKit/537.36 (KHTML, like Gecko) Chrome/103.0.0.0 Safari/537.36" etag="jvneVz7sf1ZOyG1M8REc" version="20.1.1" type="github">
  <diagram id="ZhCcr49U8RIAgtptO7Sv" name="Page-1">
    <mxGraphModel dx="520" dy="476" grid="1" gridSize="10" guides="1" tooltips="1" connect="1" arrows="1" fold="1" page="1" pageScale="1" pageWidth="827" pageHeight="1169" math="0" shadow="0">
      <root>
        <mxCell id="0" />
        <mxCell id="1" parent="0" />
        <mxCell id="SaNE5zKuCt0N_iFTSjad-3" value="" style="edgeStyle=orthogonalEdgeStyle;rounded=0;orthogonalLoop=1;jettySize=auto;html=1;" edge="1" parent="1" source="SaNE5zKuCt0N_iFTSjad-1" target="SaNE5zKuCt0N_iFTSjad-2">
          <mxGeometry relative="1" as="geometry" />
        </mxCell>
        <mxCell id="SaNE5zKuCt0N_iFTSjad-1" value="Inicio" style="ellipse;whiteSpace=wrap;html=1;" vertex="1" parent="1">
          <mxGeometry x="350" y="170" width="120" height="80" as="geometry" />
        </mxCell>
        <mxCell id="SaNE5zKuCt0N_iFTSjad-5" value="" style="edgeStyle=orthogonalEdgeStyle;rounded=0;orthogonalLoop=1;jettySize=auto;html=1;" edge="1" parent="1" source="SaNE5zKuCt0N_iFTSjad-2" target="SaNE5zKuCt0N_iFTSjad-4">
          <mxGeometry relative="1" as="geometry" />
        </mxCell>
        <mxCell id="SaNE5zKuCt0N_iFTSjad-2" value="S = segundos&lt;br&gt;M = minutos&lt;br&gt;H = hora&lt;br&gt;D = dia" style="shape=parallelogram;perimeter=parallelogramPerimeter;whiteSpace=wrap;html=1;fixedSize=1;" vertex="1" parent="1">
          <mxGeometry x="350" y="310" width="120" height="60" as="geometry" />
        </mxCell>
        <mxCell id="SaNE5zKuCt0N_iFTSjad-7" value="" style="edgeStyle=orthogonalEdgeStyle;rounded=0;orthogonalLoop=1;jettySize=auto;html=1;startArrow=none;" edge="1" parent="1" source="SaNE5zKuCt0N_iFTSjad-13" target="SaNE5zKuCt0N_iFTSjad-6">
          <mxGeometry relative="1" as="geometry" />
        </mxCell>
        <mxCell id="SaNE5zKuCt0N_iFTSjad-4" value="S = S + 1" style="whiteSpace=wrap;html=1;direction=west;" vertex="1" parent="1">
          <mxGeometry x="350" y="410" width="120" height="60" as="geometry" />
        </mxCell>
        <mxCell id="SaNE5zKuCt0N_iFTSjad-9" value="" style="edgeStyle=orthogonalEdgeStyle;rounded=0;orthogonalLoop=1;jettySize=auto;html=1;startArrow=none;" edge="1" parent="1" source="SaNE5zKuCt0N_iFTSjad-20" target="SaNE5zKuCt0N_iFTSjad-8">
          <mxGeometry relative="1" as="geometry">
            <Array as="points">
              <mxPoint x="410" y="910" />
              <mxPoint x="410" y="910" />
            </Array>
          </mxGeometry>
        </mxCell>
        <mxCell id="SaNE5zKuCt0N_iFTSjad-6" value="S = 60&lt;br&gt;M = M +1" style="whiteSpace=wrap;html=1;" vertex="1" parent="1">
          <mxGeometry x="350" y="600" width="120" height="60" as="geometry" />
        </mxCell>
        <mxCell id="SaNE5zKuCt0N_iFTSjad-11" value="" style="edgeStyle=orthogonalEdgeStyle;rounded=0;orthogonalLoop=1;jettySize=auto;html=1;" edge="1" parent="1" source="SaNE5zKuCt0N_iFTSjad-8" target="SaNE5zKuCt0N_iFTSjad-10">
          <mxGeometry relative="1" as="geometry" />
        </mxCell>
        <mxCell id="SaNE5zKuCt0N_iFTSjad-8" value="H = 24&lt;br&gt;D = D + 1" style="whiteSpace=wrap;html=1;" vertex="1" parent="1">
          <mxGeometry x="350" y="1000" width="120" height="60" as="geometry" />
        </mxCell>
        <mxCell id="SaNE5zKuCt0N_iFTSjad-10" value="Fin" style="ellipse;whiteSpace=wrap;html=1;" vertex="1" parent="1">
          <mxGeometry x="350" y="1090" width="120" height="60" as="geometry" />
        </mxCell>
        <mxCell id="SaNE5zKuCt0N_iFTSjad-14" value="" style="edgeStyle=orthogonalEdgeStyle;rounded=0;orthogonalLoop=1;jettySize=auto;html=1;endArrow=none;" edge="1" parent="1" source="SaNE5zKuCt0N_iFTSjad-6" target="SaNE5zKuCt0N_iFTSjad-13">
          <mxGeometry relative="1" as="geometry">
            <mxPoint x="410" y="620" as="sourcePoint" />
            <mxPoint x="410" y="540" as="targetPoint" />
            <Array as="points">
              <mxPoint x="410" y="580" />
            </Array>
          </mxGeometry>
        </mxCell>
        <mxCell id="SaNE5zKuCt0N_iFTSjad-16" style="edgeStyle=orthogonalEdgeStyle;rounded=0;orthogonalLoop=1;jettySize=auto;html=1;exitX=0;exitY=0.5;exitDx=0;exitDy=0;entryX=1;entryY=0.5;entryDx=0;entryDy=0;" edge="1" parent="1" source="SaNE5zKuCt0N_iFTSjad-13" target="SaNE5zKuCt0N_iFTSjad-4">
          <mxGeometry relative="1" as="geometry" />
        </mxCell>
        <mxCell id="SaNE5zKuCt0N_iFTSjad-13" value="S = 60" style="rhombus;whiteSpace=wrap;html=1;" vertex="1" parent="1">
          <mxGeometry x="370" y="505" width="80" height="80" as="geometry" />
        </mxCell>
        <mxCell id="SaNE5zKuCt0N_iFTSjad-15" value="" style="edgeStyle=orthogonalEdgeStyle;rounded=0;orthogonalLoop=1;jettySize=auto;html=1;endArrow=none;entryX=0.5;entryY=0;entryDx=0;entryDy=0;" edge="1" parent="1" source="SaNE5zKuCt0N_iFTSjad-13" target="SaNE5zKuCt0N_iFTSjad-4">
          <mxGeometry relative="1" as="geometry">
            <mxPoint x="410" y="540" as="sourcePoint" />
            <mxPoint x="414" y="670" as="targetPoint" />
            <Array as="points" />
          </mxGeometry>
        </mxCell>
        <mxCell id="SaNE5zKuCt0N_iFTSjad-19" style="edgeStyle=orthogonalEdgeStyle;rounded=0;orthogonalLoop=1;jettySize=auto;html=1;entryX=0;entryY=0.5;entryDx=0;entryDy=0;exitX=0;exitY=0.5;exitDx=0;exitDy=0;" edge="1" parent="1" source="SaNE5zKuCt0N_iFTSjad-17" target="SaNE5zKuCt0N_iFTSjad-6">
          <mxGeometry relative="1" as="geometry">
            <mxPoint x="320" y="680" as="targetPoint" />
          </mxGeometry>
        </mxCell>
        <mxCell id="SaNE5zKuCt0N_iFTSjad-17" value="M = 60" style="rhombus;whiteSpace=wrap;html=1;" vertex="1" parent="1">
          <mxGeometry x="370" y="680" width="80" height="80" as="geometry" />
        </mxCell>
        <mxCell id="SaNE5zKuCt0N_iFTSjad-18" value="" style="edgeStyle=orthogonalEdgeStyle;rounded=0;orthogonalLoop=1;jettySize=auto;html=1;endArrow=none;" edge="1" parent="1" source="SaNE5zKuCt0N_iFTSjad-6" target="SaNE5zKuCt0N_iFTSjad-17">
          <mxGeometry relative="1" as="geometry">
            <mxPoint x="410" y="710" as="sourcePoint" />
            <mxPoint x="410" y="920" as="targetPoint" />
          </mxGeometry>
        </mxCell>
        <mxCell id="SaNE5zKuCt0N_iFTSjad-20" value="M = 60&lt;br&gt;H = H + 1" style="rounded=0;whiteSpace=wrap;html=1;" vertex="1" parent="1">
          <mxGeometry x="350" y="770" width="120" height="60" as="geometry" />
        </mxCell>
        <mxCell id="SaNE5zKuCt0N_iFTSjad-21" value="" style="edgeStyle=orthogonalEdgeStyle;rounded=0;orthogonalLoop=1;jettySize=auto;html=1;startArrow=none;endArrow=none;" edge="1" parent="1" source="SaNE5zKuCt0N_iFTSjad-17" target="SaNE5zKuCt0N_iFTSjad-20">
          <mxGeometry relative="1" as="geometry">
            <mxPoint x="410" y="760" as="sourcePoint" />
            <mxPoint x="410" y="1000" as="targetPoint" />
            <Array as="points" />
          </mxGeometry>
        </mxCell>
        <mxCell id="SaNE5zKuCt0N_iFTSjad-23" style="edgeStyle=orthogonalEdgeStyle;rounded=0;orthogonalLoop=1;jettySize=auto;html=1;entryX=0;entryY=0.5;entryDx=0;entryDy=0;exitX=0;exitY=0.5;exitDx=0;exitDy=0;" edge="1" parent="1" source="SaNE5zKuCt0N_iFTSjad-22" target="SaNE5zKuCt0N_iFTSjad-20">
          <mxGeometry relative="1" as="geometry" />
        </mxCell>
        <mxCell id="SaNE5zKuCt0N_iFTSjad-22" value="H = 24" style="rhombus;whiteSpace=wrap;html=1;" vertex="1" parent="1">
          <mxGeometry x="370" y="880" width="80" height="80" as="geometry" />
        </mxCell>
      </root>
    </mxGraphModel>
  </diagram>
</mxfile>
